<?xml version="1.0" standalone="no"?>
<!DOCTYPE svg PUBLIC "-//W3C//DTD SVG 20010904//EN"
 "http://www.w3.org/TR/2001/REC-SVG-20010904/DTD/svg10.dtd">
<svg version="1.0" xmlns="http://www.w3.org/2000/svg"
 width="400.000000pt" height="400.000000pt" viewBox="0 0 400.000000 400.000000"
 preserveAspectRatio="xMidYMid meet">
<metadata>
Created by potrace 1.14, written by Peter Selinger 2001-2017
</metadata>
<g transform="translate(0.000000,400.000000) scale(0.100000,-0.100000)"
fill="#000000" stroke="none">
<path d="M0 2000 l0 -2000 2000 0 2000 0 0 2000 0 2000 -2000 0 -2000 0 0
-2000z m3420 515 l0 -684 33 -9 c31 -8 32 -11 37 -67 l5 -58 41 -12 c55 -16
158 -75 147 -85 -4 -4 -33 -15 -63 -25 -73 -23 -79 -31 -37 -44 50 -17 124
-85 153 -142 l24 -49 -129 0 -130 0 -37 -32 c-20 -18 -54 -60 -76 -94 -41 -67
-99 -124 -123 -124 -12 0 -15 -21 -15 -119 0 -83 -4 -122 -13 -129 -7 -6 -71
-24 -143 -41 -233 -54 -462 -120 -782 -227 l-312 -104 -313 104 c-319 107
-548 173 -781 227 -72 17 -136 35 -143 41 -9 7 -13 46 -13 129 0 98 -3 119
-15 119 -25 0 -79 56 -128 132 -72 111 -87 118 -240 118 l-127 0 24 49 c29 57
103 125 153 142 42 13 36 21 -37 44 -30 10 -58 21 -63 24 -13 13 116 81 175
92 l58 12 0 183 0 183 88 3 87 3 -64 50 c-36 28 -80 63 -98 79 l-33 28 0 337
0 336 152 147 153 147 1293 1 1292 0 0 -685z"/>
<path d="M693 3028 l-143 -142 0 -321 0 -320 106 -83 107 -82 108 0 109 0 -2
-137 -2 -138 -5 115 -6 115 -197 3 -198 2 -2 -187 -3 -188 -55 -6 c-54 -6
-120 -32 -120 -48 0 -4 19 -14 43 -21 23 -7 60 -21 82 -33 l40 -20 -61 -17
c-76 -20 -146 -61 -173 -99 -35 -49 -29 -53 58 -46 131 12 176 -13 266 -149
56 -86 80 -105 132 -109 l33 -2 0 -116 0 -117 98 -22 c280 -65 614 -163 910
-267 l182 -64 183 64 c295 104 629 202 910 267 l97 22 0 117 0 116 33 2 c52 4
76 23 132 109 90 135 135 161 267 150 86 -7 91 -3 57 45 -27 38 -97 79 -173
99 l-61 17 40 20 c22 12 59 26 83 33 23 7 42 17 42 22 0 15 -83 48 -122 48
l-37 0 -3 62 c-3 61 -4 63 -35 72 l-33 9 -2 681 -3 681 -1269 3 -1269 2 -144
-142z m627 -158 l0 -270 -170 0 -170 0 0 90 c0 89 0 90 -25 90 l-25 0 0 -150
0 -150 116 0 115 0 95 -72 94 -73 0 -328 0 -327 -46 -44 c-28 -27 -52 -42 -61
-39 -11 4 -3 18 31 52 l46 47 0 309 0 310 -80 63 -80 62 -130 0 -130 0 0 190
0 190 55 0 55 0 0 -95 0 -95 140 0 140 0 0 240 0 240 -212 0 -213 -1 -128
-124 -127 -123 2 -292 c1 -160 5 -294 8 -299 3 -4 40 -35 84 -69 l79 -62 128
0 129 0 0 -195 0 -195 -64 0 c-42 0 -65 4 -68 13 -3 6 -4 58 -2 115 l4 102
-140 0 -140 0 0 -160 c0 -153 -1 -160 -20 -160 -19 0 -20 7 -20 175 l0 175
175 0 175 0 0 -115 0 -115 35 0 35 0 0 165 0 165 -121 0 -120 0 -95 73 -94 72
0 310 0 310 132 132 133 133 237 0 238 0 0 -270z m1040 35 l0 -235 -140 0
-140 0 2 -442 3 -442 33 -10 32 -9 0 -123 c0 -104 -2 -124 -15 -124 -12 0 -15
19 -15 109 l0 109 -35 12 -35 12 0 539 c0 310 4 539 9 539 13 0 21 -26 21 -68
0 -69 17 -76 168 -65 l82 5 -2 197 -3 196 -422 3 -423 2 0 -202 0 -203 107 2
c60 2 113 3 119 3 7 0 15 28 19 65 3 36 11 65 16 65 5 0 9 -263 9 -655 0 -576
-2 -655 -15 -655 -13 0 -15 70 -15 570 l0 570 -135 0 c-74 0 -135 3 -136 8 -1
4 -2 109 -3 235 l-1 227 458 0 457 0 0 -235z m540 -110 l0 -345 45 0 45 0 0
164 0 164 -35 12 -35 12 0 169 0 169 215 0 215 0 0 -679 0 -679 35 -6 c35 -7
35 -7 35 -61 0 -47 -3 -55 -18 -55 -16 0 -18 7 -16 40 2 37 0 40 -29 48 l-32
8 -5 675 -5 674 -177 3 -178 2 0 -144 0 -144 30 -7 30 -7 0 -194 0 -194 -75 0
-75 0 0 345 0 345 -182 -2 -183 -3 0 -140 0 -139 33 -10 32 -9 0 -623 c0 -548
-2 -624 -15 -624 -13 0 -15 74 -15 609 l0 609 -35 12 -35 12 0 169 0 169 215
0 215 0 0 -345z m-1640 75 l0 -200 -105 0 -105 0 0 90 0 90 -95 0 -95 0 0
-220 0 -220 141 0 141 0 67 -52 c36 -29 69 -57 73 -63 4 -5 8 -138 8 -295 l0
-286 -53 -52 -52 -52 -110 30 c-61 16 -132 36 -160 44 -27 9 -51 16 -52 16 -1
0 -7 -16 -13 -34 -8 -25 -22 -40 -48 -53 -37 -18 -37 -18 -89 10 l-53 29 0
144 0 144 105 0 105 0 0 -115 0 -115 100 0 100 0 0 235 0 235 -141 0 -140 0
-69 53 -69 52 -1 285 0 285 112 107 113 107 193 1 192 0 0 -200z m1030 35 l0
-165 -84 0 -83 0 -7 31 c-3 17 -6 47 -6 65 0 34 -1 34 -45 34 l-45 0 0 -569 0
-569 29 -7 c35 -8 37 -13 33 -121 l-3 -84 -145 0 -144 0 0 675 0 675 -44 0
c-41 0 -44 -2 -50 -31 -3 -17 -6 -47 -6 -65 l0 -34 -90 0 -90 0 0 165 0 165
390 0 390 0 0 -165z m550 -180 l0 -345 105 0 105 0 0 226 0 225 -30 10 -30 11
0 109 0 109 145 0 145 0 0 -670 0 -669 35 -7 c31 -6 35 -10 35 -38 0 -28 -7
-34 -58 -62 -51 -28 -61 -30 -77 -18 -10 8 -26 14 -35 14 -11 0 -23 16 -33 41
-12 31 -20 40 -33 35 -9 -3 -27 -9 -40 -12 l-24 -6 0 241 0 241 -105 0 -105 0
0 -214 0 -214 30 -11 c27 -9 30 -14 30 -50 0 -23 -3 -41 -8 -41 -6 0 -87 -17
-259 -55 l-23 -5 0 629 0 629 -35 12 -35 12 0 109 0 109 150 0 150 0 0 -345z
m180 -830 c0 -201 -2 -235 -15 -235 -12 0 -15 33 -17 218 l-3 217 -40 0 -40 0
-3 -153 -3 -153 36 -15 c34 -14 35 -16 35 -69 0 -30 -2 -55 -4 -55 -2 0 -11
-3 -20 -6 -12 -5 -15 5 -18 47 -3 47 -6 54 -28 59 l-25 6 -3 187 -2 187 75 0
75 0 0 -235z m-2004 -270 c167 -46 383 -89 559 -112 194 -25 664 -24 850 1
176 23 401 69 557 113 71 19 130 34 132 32 11 -14 136 -385 132 -394 -2 -7
-71 -31 -153 -53 -256 -72 -556 -124 -791 -139 -68 -4 -101 -10 -99 -17 14
-40 621 42 871 119 33 10 53 12 60 5 5 -5 8 -11 5 -14 -2 -2 -58 -17 -124 -34
-217 -55 -431 -92 -663 -113 l-123 -11 -37 40 c-85 91 -207 113 -311 57 -29
-16 -65 -45 -79 -63 l-26 -34 -80 7 c-234 19 -439 51 -669 107 -109 26 -167
44 -164 51 5 14 -10 17 172 -26 182 -43 345 -72 525 -92 173 -19 224 -19 240
0 11 13 5 15 -46 15 -78 0 -299 25 -449 50 -182 31 -536 119 -558 139 -6 6 56
194 128 389 6 15 -7 18 141 -23z m-353 -12 c26 -8 59 -27 74 -42 l27 -27 23
24 c39 38 38 25 -2 -86 -3 -9 -20 -5 -62 16 -32 16 -76 35 -98 42 -22 7 -71
27 -108 46 -57 28 -64 34 -45 38 70 16 115 13 191 -11z m2869 10 c20 -5 -86
-61 -157 -83 -22 -7 -66 -26 -97 -41 -32 -16 -59 -29 -62 -29 -2 0 -11 19 -19
43 -8 23 -18 50 -22 60 -11 27 20 21 44 -9 19 -24 20 -24 30 -6 30 56 186 92
283 65z m-2839 -153 c50 -25 67 -39 67 -54 -1 -50 -12 -51 -118 -7 -56 23
-125 47 -154 55 -50 13 -51 15 -28 24 79 31 145 26 233 -18z m2842 20 l30 -12
-53 -14 c-29 -8 -98 -32 -153 -55 -56 -23 -104 -37 -109 -33 -4 5 -11 19 -14
31 -7 23 16 40 119 85 44 20 128 19 180 -2z m-2993 -84 c171 -64 190 -74 182
-99 -20 -58 -13 -70 53 -90 62 -19 62 -19 47 -42 -38 -58 -93 -35 -154 62 -85
136 -132 167 -254 166 l-80 0 29 24 c34 30 45 28 177 -21z m3095 18 l28 -25
-51 5 c-71 9 -143 -9 -188 -45 -20 -17 -61 -68 -91 -113 -71 -109 -116 -131
-155 -76 l-21 29 63 20 c39 12 62 24 61 33 0 7 -4 27 -8 45 -7 30 -5 33 31 48
82 36 270 104 286 105 9 0 30 -12 45 -26z m-1667 -364 c0 -29 -2 -30 -44 -30
-57 0 -66 14 -24 40 48 29 68 26 68 -10z m40 0 c0 -16 -4 -30 -10 -30 -5 0
-10 14 -10 30 0 17 5 30 10 30 6 0 10 -13 10 -30z m89 9 l34 -20 -21 -22 c-17
-17 -24 -19 -34 -9 -7 7 -20 12 -30 12 -13 0 -18 8 -18 30 0 37 20 39 69 9z
m-1033 -73 c16 -6 15 -8 -4 -22 -12 -8 -22 -25 -22 -36 0 -20 -1 -20 -18 -5
-11 10 -26 14 -41 10 -21 -5 -22 -4 -13 14 7 12 7 25 1 34 -14 22 -11 29 15
29 13 0 27 8 31 18 6 15 8 14 20 -9 8 -15 22 -30 31 -33z m1953 24 c23 0 26
-7 12 -29 -6 -9 -6 -22 1 -34 9 -18 8 -19 -13 -14 -15 4 -30 0 -41 -10 -17
-15 -18 -15 -18 5 0 11 -9 27 -21 36 l-21 14 20 11 c12 6 24 21 28 33 6 20 8
20 19 5 7 -9 22 -17 34 -17z m-1149 -14 c-13 -13 -35 7 -25 24 5 8 11 8 21 -1
10 -8 12 -15 4 -23z m290 14 c0 -12 -40 -33 -47 -26 -9 8 28 47 38 40 5 -3 9
-9 9 -14z m-270 -94 c0 -18 -6 -21 -50 -22 -57 -1 -62 10 -33 71 l17 35 33
-32 c18 -17 33 -41 33 -52z m320 -3 c0 -22 -12 -24 -82 -14 -18 2 -6 47 19 73
l27 29 18 -33 c9 -18 17 -43 18 -55z m-883 12 l28 -7 -28 -20 c-17 -13 -27
-29 -27 -45 0 -25 -1 -26 -20 -8 -14 12 -28 16 -49 12 -29 -6 -30 -6 -19 19 9
19 9 30 0 45 -17 26 -16 29 16 29 17 0 32 8 41 23 l15 22 8 -31 c6 -23 16 -34
35 -39z m1447 25 c29 0 31 -3 14 -29 -9 -15 -9 -26 0 -45 11 -25 10 -25 -19
-19 -21 4 -35 0 -49 -12 -19 -18 -20 -17 -20 8 0 16 -10 32 -27 45 l-28 20 28
7 c21 6 30 15 34 38 l6 30 18 -21 c9 -12 29 -22 43 -22z m-714 -30 c0 -10 -3
-21 -7 -23 -5 -3 -8 8 -8 23 0 15 3 26 8 23 4 -2 7 -13 7 -23z m-313 -2 c-3
-8 -6 -5 -6 6 -1 11 2 17 5 13 3 -3 4 -12 1 -19z m510 0 c-3 -8 -6 -5 -6 6 -1
11 2 17 5 13 3 -3 4 -12 1 -19z m-682 -16 c4 -19 16 -32 38 -40 l32 -13 -27
-15 c-19 -10 -28 -23 -28 -39 0 -32 -17 -41 -39 -21 -12 11 -27 14 -50 10 -31
-7 -32 -6 -20 20 11 23 10 32 -5 57 l-17 29 35 0 c25 0 40 6 48 20 17 27 25
25 33 -8z m465 18 c0 -5 -13 -10 -30 -10 -16 0 -30 5 -30 10 0 6 14 10 30 10
17 0 30 -4 30 -10z m418 -10 c8 -14 23 -20 48 -20 l35 0 -17 -29 c-15 -25 -16
-34 -5 -57 12 -26 11 -27 -20 -20 -23 4 -38 1 -51 -11 -17 -15 -20 -15 -28 -3
-6 8 -10 23 -10 32 0 10 -12 24 -27 32 l-28 15 32 13 c22 8 34 21 38 40 8 33
16 35 33 8z m-357 -34 c-8 -10 -9 -16 -1 -21 5 -3 10 -11 10 -18 0 -6 -6 -2
-14 9 -13 17 -6 44 11 44 3 0 0 -6 -6 -14z m-211 -12 c0 -12 -10 -14 -52 -12
-74 4 -77 28 -4 28 44 0 56 -3 56 -16z m325 1 c0 -11 -69 -19 -92 -11 -8 3
-11 11 -8 16 8 14 100 9 100 -5z m-325 -47 c0 -21 -45 -78 -62 -78 -10 0 -38
62 -38 85 0 11 12 15 50 15 45 0 50 -2 50 -22z m170 -8 c0 -10 -3 -21 -7 -23
-5 -3 -8 8 -8 23 0 15 3 26 8 23 4 -2 7 -13 7 -23z m150 15 c0 -23 -28 -85
-38 -85 -5 0 -18 11 -30 23 -19 20 -23 41 -13 75 1 1 19 2 41 2 29 0 40 -4 40
-15z m-463 -27 c-3 -8 -6 -5 -6 6 -1 11 2 17 5 13 3 -3 4 -12 1 -19z m293 12
c0 -5 -13 -10 -30 -10 -16 0 -30 5 -30 10 0 6 14 10 30 10 17 0 30 -4 30 -10z
m217 -12 c-3 -8 -6 -5 -6 6 -1 11 2 17 5 13 3 -3 4 -12 1 -19z m-488 -48 c11
-24 11 -24 -3 -6 -9 11 -16 24 -16 30 0 12 5 7 19 -24z m321 5 c-13 -14 -33
-24 -44 -24 -20 2 -20 2 0 6 12 2 30 13 40 24 9 10 19 19 22 19 3 0 -5 -11
-18 -25z m146 -13 c-9 -17 -20 -33 -25 -36 -5 -4 0 12 12 33 25 46 36 48 13 3z
m-92 -1 c12 -13 14 -21 6 -26 -13 -8 -40 12 -40 31 0 20 14 17 34 -5z m-277
-28 c-3 -3 -11 -2 -17 2 -8 5 -7 11 2 22 12 15 13 14 16 -1 2 -10 1 -20 -1
-23z m70 21 c-3 -3 -12 -4 -19 -1 -8 3 -5 6 6 6 11 1 17 -2 13 -5z m71 -1
c-10 -2 -28 -2 -40 0 -13 2 -5 4 17 4 22 1 32 -1 23 -4z m106 -22 c17 -19 17
-20 -11 -34 -15 -8 -38 -18 -50 -21 -21 -7 -23 -4 -23 28 0 30 4 35 28 39 15
2 30 5 33 6 3 0 14 -8 23 -18z m-144 -27 c0 -32 -2 -35 -22 -28 -13 3 -36 13
-51 21 -23 12 -26 17 -16 29 6 8 29 14 50 14 38 0 39 -1 39 -36z m40 -4 c0
-16 -4 -30 -10 -30 -5 0 -10 14 -10 30 0 17 5 30 10 30 6 0 10 -13 10 -30z
m18 -77 c-16 -2 -40 -2 -55 0 -16 2 -3 4 27 4 30 0 43 -2 28 -4z"/>
<path d="M896 1544 c-18 -18 -21 -70 -6 -110 11 -29 5 -64 -12 -64 -6 0 -8 12
-4 31 5 25 3 30 -12 27 -21 -4 -29 -53 -11 -74 34 -42 87 6 75 68 -11 52 -12
98 -1 95 5 -1 8 -12 7 -24 -5 -32 16 -29 29 4 9 24 7 30 -11 45 -27 22 -34 22
-54 2z"/>
<path d="M3027 1543 c-11 -3 -16 -11 -13 -21 3 -9 17 -55 31 -101 14 -46 26
-86 28 -87 1 -2 9 1 16 5 11 7 11 15 2 41 -6 18 -11 40 -11 48 0 25 28 -6 35
-39 7 -32 22 -46 36 -32 6 6 2 28 -10 59 -10 27 -24 68 -30 92 -10 37 -15 42
-39 41 -15 -1 -35 -3 -45 -6z m55 -48 c7 -35 -10 -42 -22 -10 -13 34 -13 35 4
35 7 0 16 -11 18 -25z"/>
<path d="M1005 1517 c-52 -155 -57 -206 -18 -207 6 0 18 -3 27 -6 11 -4 16 -1
16 11 0 9 -9 19 -20 22 -23 6 -23 4 -10 37 6 16 17 26 30 26 11 0 20 7 20 15
0 8 -7 15 -15 15 -16 0 -20 27 -7 48 5 7 16 10 24 7 9 -4 19 -1 23 5 9 15 4
19 -34 30 -23 6 -33 6 -36 -3z"/>
<path d="M2945 1517 c-16 -5 -31 -11 -33 -13 -3 -2 47 -196 52 -201 1 -1 19 2
39 8 26 7 34 14 30 25 -3 9 -12 12 -24 9 -27 -9 -48 44 -25 61 22 16 20 37 -3
29 -14 -4 -20 0 -25 17 -9 33 -8 38 8 38 18 0 27 13 18 26 -5 8 -17 8 -37 1z"/>
<path d="M1116 1458 c-32 -75 -66 -162 -66 -165 0 -11 32 0 36 12 9 22 32 18
36 -7 2 -12 8 -23 15 -25 13 -5 21 41 25 142 3 60 1 70 -15 73 -12 2 -22 -7
-31 -30z m10 -106 c-12 -11 -18 7 -10 30 l8 23 4 -23 c2 -13 1 -26 -2 -30z"/>
<path d="M2808 1483 c-23 -6 -22 -12 3 -123 l21 -91 32 6 c55 12 58 20 32 120
-20 82 -24 90 -47 92 -13 0 -32 -1 -41 -4z m57 -93 c16 -67 15 -95 -4 -74 -10
11 -31 94 -31 123 0 44 19 18 35 -49z"/>
<path d="M1230 1455 c-12 -14 -11 -24 6 -137 4 -25 2 -38 -5 -38 -6 0 -11 14
-11 30 0 20 -5 30 -15 30 -22 0 -21 -76 1 -84 60 -23 87 20 61 94 -19 53 -22
90 -8 90 5 0 11 -11 13 -25 4 -33 22 -33 26 0 6 47 -40 74 -68 40z"/>
<path d="M2688 1455 c-5 -5 30 -196 38 -204 1 -2 19 0 39 3 22 5 35 13 35 23
0 11 -6 14 -24 9 -29 -7 -30 -4 -47 97 -11 68 -23 89 -41 72z"/>
<path d="M1353 1432 c-7 -5 -20 -45 -29 -90 -14 -66 -14 -85 -4 -97 15 -18 64
-20 77 -2 18 22 34 156 23 177 -11 20 -45 26 -67 12z m44 -35 c-3 -8 -8 -39
-12 -69 -8 -63 -19 -88 -34 -73 -9 9 -6 33 15 133 2 12 12 22 20 22 9 0 14 -6
11 -13z"/>
<path d="M2570 1425 c-12 -15 -10 -59 7 -153 7 -40 32 -56 67 -42 21 8 26 16
26 44 0 45 -19 137 -32 154 -14 17 -53 15 -68 -3z m59 -78 c14 -81 14 -100 -1
-95 -14 5 -23 35 -33 107 -6 42 -4 51 8 51 11 0 18 -19 26 -63z"/>
<path d="M1458 1323 c-10 -60 -12 -102 -6 -108 14 -15 28 14 28 60 0 53 18 33
22 -25 2 -32 8 -46 19 -48 18 -3 23 20 35 147 6 61 5 73 -7 69 -8 -3 -15 -22
-17 -47 -4 -52 -22 -44 -22 10 0 31 -4 39 -19 39 -16 0 -21 -14 -33 -97z"/>
<path d="M2435 1353 c13 -118 20 -148 35 -148 11 0 14 11 11 48 -3 60 15 62
23 2 5 -29 12 -45 22 -45 17 0 17 27 1 130 -9 56 -16 76 -29 78 -14 3 -15 -3
-11 -36 3 -22 1 -42 -5 -46 -6 -3 -13 13 -16 39 -5 31 -12 45 -22 45 -13 0
-14 -11 -9 -67z"/>
<path d="M1670 1390 c0 -6 7 -13 16 -17 14 -5 16 -18 10 -100 -6 -77 -5 -93 7
-93 19 0 27 30 27 102 0 66 7 88 26 88 8 0 14 7 14 15 0 11 -12 15 -50 15 -28
0 -50 -5 -50 -10z"/>
<path d="M2227 1393 c-13 -12 -7 -23 12 -23 16 0 19 -11 24 -91 6 -97 9 -105
28 -94 8 6 9 32 4 96 -6 77 -4 89 9 89 9 0 16 7 16 15 0 11 -11 15 -43 15 -24
0 -47 -3 -50 -7z"/>
<path d="M1797 1323 c-11 -107 -9 -143 7 -143 14 0 26 67 26 158 0 37 -4 52
-14 52 -9 0 -15 -21 -19 -67z"/>
<path d="M1883 1378 c-6 -7 -13 -47 -17 -89 -6 -66 -4 -79 13 -100 16 -20 23
-22 47 -14 24 9 30 17 32 48 2 28 0 37 -12 37 -11 0 -16 -9 -16 -30 0 -20 -5
-30 -15 -30 -12 0 -15 16 -15 80 0 64 3 80 15 80 9 0 15 -9 15 -25 0 -16 6
-25 15 -25 18 0 21 50 3 68 -16 16 -53 15 -65 0z"/>
<path d="M2000 1280 c0 -91 3 -110 15 -110 11 0 15 12 16 43 l0 42 22 -42 c11
-24 27 -43 34 -43 17 0 17 3 -8 61 -22 50 -21 70 8 146 4 11 0 14 -12 12 -11
-3 -23 -20 -31 -44 l-12 -40 -1 43 c-1 30 -5 42 -16 42 -12 0 -15 -19 -15
-110z"/>
<path d="M2130 1285 l0 -105 40 0 c44 0 58 26 18 32 -32 4 -38 53 -9 61 27 7
27 27 1 27 -16 0 -20 7 -20 30 0 23 4 30 20 30 11 0 20 7 20 15 0 10 -11 15
-35 15 l-35 0 0 -105z"/>
</g>
</svg>
